<svg width="50" height="50" viewBox="0 0 50 50" fill="none" xmlns="http://www.w3.org/2000/svg">
<g filter="url(#filter0_d_3385_4037)">
<rect x="5" y="5" width="40.4688" height="40.4688" rx="9" fill="white"/>
</g>
<g filter="url(#filter1_f_3385_4037)">
<rect x="16" y="12" width="18" height="27" rx="9" fill="#E9E9E9"/>
</g>
<path d="M25.2404 33.5849C25.229 33.5735 25.2175 33.562 25.2175 33.5506C25.2061 33.5391 25.2061 33.5391 25.1946 33.5277C25.1832 33.5277 25.1832 33.5162 25.1717 33.5162C25.1603 33.5048 25.1488 33.5048 25.1374 33.4933C25.126 33.4933 25.1145 33.4819 25.1031 33.4819C25.0916 33.4819 25.0802 33.4704 25.0802 33.4704C25.0687 33.4704 25.0573 33.4704 25.0458 33.459C25.0344 33.459 25.0229 33.459 25.0115 33.459C25 33.459 24.9886 33.459 24.9771 33.459C24.9657 33.459 24.9543 33.459 24.9428 33.459C24.9314 33.459 24.9199 33.459 24.9085 33.459C24.897 33.459 24.8856 33.459 24.8741 33.4704C24.8627 33.4704 24.8512 33.4819 24.8512 33.4819C24.8398 33.4819 24.8283 33.4933 24.8169 33.4933C24.8054 33.4933 24.794 33.5048 24.7825 33.5162C24.7711 33.5162 24.7711 33.5277 24.7597 33.5277C24.7482 33.5391 24.7482 33.5391 24.7368 33.5506C24.7253 33.562 24.7139 33.5735 24.7139 33.5735L23.7867 34.7296C23.6722 34.8784 23.6951 35.0845 23.8439 35.1989C23.9011 35.2447 23.9813 35.2676 24.0499 35.2676C24.153 35.2676 24.2445 35.2218 24.3132 35.1417L24.3247 35.1302C24.6681 34.7067 25.3091 34.7067 25.6411 35.1302L25.6525 35.1417C25.7212 35.2218 25.8128 35.2676 25.9158 35.2676C25.9845 35.2676 26.0646 35.2447 26.1218 35.1989C26.2707 35.0845 26.2935 34.867 26.1791 34.7296L25.2404 33.5849Z" fill="black"/>
<path d="M23.6951 14.0332C23.2257 14.0332 22.8365 14.3995 22.8137 14.8688L21.0623 15.5099C20.9707 15.5442 20.902 15.6243 20.902 15.7274V16.8377H19.494C19.391 16.46 19.059 16.1852 18.647 16.1852C18.1662 16.1852 17.7655 16.5744 17.7655 17.0667C17.7655 17.5474 18.1547 17.9481 18.647 17.9481C19.059 17.9481 19.391 17.6733 19.494 17.2956H21.1309C21.2569 17.2956 21.3599 17.1926 21.3599 17.0667V15.8876L22.9052 15.3153C23.054 15.6014 23.3517 15.796 23.6836 15.796C24.1644 15.796 24.565 15.4068 24.565 14.9146C24.5765 14.4338 24.1758 14.0332 23.6951 14.0332Z" fill="black"/>
<path d="M21.8407 30.4253C21.5545 30.3223 21.2798 30.2193 21.0165 30.1048C20.8219 30.0132 20.6273 29.9217 20.4442 29.8301C20.8791 30.2651 21.9323 31.0435 23.0655 31.0664C23.1342 30.9862 23.1914 30.9061 23.2372 30.8031C23.0655 30.7687 22.8938 30.7344 22.7221 30.6886C22.413 30.6085 22.1269 30.5283 21.8407 30.4253Z" fill="#9D9D9C"/>
<path d="M36.2066 22.4357C36.2066 21.8977 36.1723 21.3597 36.0922 20.8446C36.0922 20.8102 36.0807 20.7759 36.0807 20.7415C35.3825 16.1971 31.9369 12.4654 27.4039 11.4695C27.2894 10.9544 26.8316 10.5652 26.2821 10.5652C25.6411 10.5652 25.126 11.0803 25.126 11.7213C25.126 12.2708 25.5152 12.7286 26.0303 12.8431V17.067C26.0303 17.1357 26.0646 17.2044 26.1218 17.2502C26.1562 17.2731 26.202 17.2845 26.2478 17.2845C26.2707 17.2845 26.305 17.2845 26.3279 17.2731L28.022 16.6321C28.1365 16.8038 28.3082 16.9182 28.5143 16.9755V18.9672C27.6557 20.0204 26.5912 20.9705 25.4579 21.8175L24.1644 18.8184C24.4048 18.6582 24.5651 18.3949 24.5651 18.0858C24.5651 17.6051 24.1759 17.2044 23.6836 17.2044C23.2029 17.2044 22.8022 17.5936 22.8022 18.0858C22.8022 18.5666 23.1914 18.9672 23.6836 18.9672C23.6951 18.9672 23.718 18.9672 23.7294 18.9672L25.0802 22.0923C24.2903 22.6646 23.4776 23.1797 22.6763 23.6491L18.8301 22.4929C18.7843 22.4815 18.7385 22.4815 18.6928 22.5044L17.5481 22.9508C17.3878 22.7333 17.136 22.5959 16.8383 22.5959C16.3576 22.5959 15.9569 22.9851 15.9569 23.4774C15.9569 23.9581 16.3461 24.3588 16.8383 24.3588C17.3191 24.3588 17.7198 23.9696 17.7198 23.4774C17.7198 23.443 17.7083 23.4087 17.7083 23.3743L18.7843 22.9508L22.1383 23.9581C19.2766 25.5607 16.7124 26.4879 16.2889 26.6367L16.0828 26.7054C15.8997 26.568 15.6707 26.4879 15.4189 26.4879C15.4075 26.4879 15.396 26.4879 15.3846 26.4879C14.8466 25.2173 14.5718 23.8322 14.5718 22.4471C14.5718 21.7603 14.6405 21.0849 14.7664 20.4325H19.7917C19.8947 20.8102 20.2266 21.0849 20.6387 21.0849C21.1195 21.0849 21.5202 20.6957 21.5202 20.2035C21.5202 19.7227 21.131 19.3221 20.6387 19.3221C20.2266 19.3221 19.8947 19.5968 19.7917 19.9746H14.8695C15.7967 16.2085 18.7729 13.198 22.6191 12.3051C22.8251 12.6371 23.1914 12.866 23.6035 12.866C24.2445 12.866 24.7597 12.3509 24.7597 11.7099C24.7597 11.0688 24.2445 10.5537 23.6035 10.5537C23.0426 10.5537 22.5847 10.9544 22.4703 11.4695C17.4221 12.6142 13.7248 17.1586 13.7248 22.4242C13.7248 23.9238 14.0224 25.4233 14.6062 26.797C14.3887 27.003 14.2628 27.3007 14.2628 27.6212C14.2628 28.1363 14.5947 28.5598 15.0526 28.7201V33.2302C15.0526 33.3103 15.0755 33.3904 15.1213 33.4591L15.3731 33.6308L18.7958 36.0461V38.9308C18.7958 39.1712 18.9904 39.3658 19.2308 39.3658H30.6777C30.9181 39.3658 31.1127 39.1712 31.1127 38.9308V36.0461L34.5468 33.6308L34.7987 33.4477C34.8445 33.379 34.8673 33.2989 34.8673 33.2187V28.6743C35.2909 28.5026 35.5885 28.0905 35.5885 27.6097C35.5885 27.3121 35.474 27.0374 35.2909 26.8313C35.8976 25.4691 36.2066 23.9581 36.2066 22.4357ZM23.2029 11.3436C23.3059 11.2291 23.4547 11.1604 23.615 11.1604C23.924 11.1604 24.1759 11.4122 24.1759 11.7213C24.1759 12.0304 23.924 12.2822 23.615 12.2822C23.5005 12.2822 23.3975 12.2479 23.3059 12.1906C23.1571 12.0876 23.0541 11.9159 23.0541 11.7328C23.0541 11.5725 23.1113 11.4351 23.2029 11.3436ZM25.7212 11.7099C25.7212 11.4008 25.973 11.149 26.2821 11.149C26.4424 11.149 26.5797 11.2176 26.6827 11.3207C26.7743 11.4237 26.8316 11.5496 26.8316 11.6984C26.8316 11.8816 26.74 12.0533 26.5912 12.1563C26.4996 12.225 26.3966 12.2593 26.2707 12.2593C25.973 12.2708 25.7212 12.0189 25.7212 11.7099ZM27.8732 16.1169C27.8732 16.1513 27.8847 16.1742 27.8847 16.1971L26.4882 16.7236V12.8317C26.8316 12.7744 27.1177 12.5684 27.278 12.2822C28.5028 12.5569 29.6475 13.0492 30.6663 13.7245C30.6549 15.4187 30.0024 16.9755 28.9721 18.3835V16.964C29.3499 16.861 29.6246 16.529 29.6246 16.1169C29.6246 15.6362 29.2354 15.2355 28.7432 15.2355C28.2624 15.247 27.8732 15.6362 27.8732 16.1169ZM15.4304 28.1821C15.293 28.1821 15.1671 28.1248 15.0641 28.0447C14.9496 27.9417 14.8695 27.7929 14.8695 27.6326C14.8695 27.5639 14.8809 27.4953 14.9038 27.438C14.9839 27.232 15.19 27.0832 15.4189 27.0832C15.5219 27.0832 15.6135 27.1175 15.6936 27.1633C15.8539 27.2549 15.9684 27.438 15.9684 27.6441C15.9684 27.7471 15.934 27.8387 15.8882 27.9188C15.8081 28.079 15.6364 28.1821 15.4304 28.1821ZM34.8902 27.9646C34.7872 28.0905 34.627 28.1821 34.4553 28.1821C34.295 28.1821 34.1576 28.1134 34.0546 28.0104C33.963 27.9073 33.9058 27.7814 33.9058 27.6326C33.9058 27.3922 34.0546 27.1862 34.2721 27.1175C34.3293 27.0946 34.398 27.0832 34.4667 27.0832C34.73 27.0832 34.9589 27.2778 35.0162 27.5296C35.0276 27.5639 35.0276 27.5983 35.0276 27.6441C35.0047 27.7585 34.9589 27.873 34.8902 27.9646ZM34.5468 26.4765C34.5125 26.4765 34.4781 26.4765 34.4438 26.4765C33.8028 26.4765 33.2877 26.9916 33.2877 27.6326C33.2877 28.1248 33.5967 28.5484 34.0432 28.7086V32.9211L30.4374 35.4624C30.3229 35.5425 30.2542 35.6798 30.2542 35.8172V38.244C30.2542 38.3813 30.1397 38.4958 30.0024 38.4958H28.6631C28.5257 38.4958 28.4112 38.3813 28.4112 38.244V37.374C28.4112 37.1451 28.251 36.939 28.022 36.9161C27.7588 36.8932 27.5413 37.0993 27.5413 37.3511V38.2554C27.5413 38.3928 27.4268 38.5073 27.2894 38.5073H25.6525C25.5152 38.5073 25.4007 38.3928 25.4007 38.2554V36.9161C25.4007 36.6872 25.2404 36.4811 25.0115 36.4582C24.7482 36.4353 24.5307 36.6414 24.5307 36.8932V38.2669C24.5307 38.4042 24.4162 38.5187 24.2789 38.5187H22.642C22.5046 38.5187 22.3901 38.4042 22.3901 38.2669V37.374C22.3901 37.1451 22.2299 36.939 22.0009 36.9161C21.7377 36.8932 21.5202 37.0993 21.5202 37.3511V38.2554C21.5202 38.3928 21.4057 38.5073 21.2683 38.5073H19.929C19.7917 38.5073 19.6772 38.3928 19.6772 38.2554V35.8287C19.6772 35.6913 19.6085 35.5539 19.494 35.4738L15.8997 32.9326V28.6743C16.3003 28.4911 16.5751 28.0905 16.5751 27.6212C16.5751 27.5525 16.5636 27.4838 16.5522 27.4151C17.01 27.2549 20.5014 26.0071 23.9355 23.8666C28.5829 20.9705 31.1585 17.6852 31.4561 14.3083C33.4594 15.9223 34.8445 18.2575 35.2451 20.8789C35.1879 26.6138 25.1946 30.151 25.0916 30.1853C25.0687 30.1967 25.0115 30.2082 24.9657 30.2311C24.8398 30.2082 24.7139 30.1853 24.5765 30.1624C24.4849 30.1395 24.3819 30.1281 24.2903 30.1052C24.1415 30.0823 23.9927 30.0479 23.8439 30.0136C23.821 30.0021 23.7867 30.0021 23.7638 30.0021C23.7065 29.9907 23.6493 29.9792 23.5921 29.9678C23.5234 29.9564 23.4547 29.9335 23.386 29.922C23.2258 29.8877 23.0655 29.8533 22.9167 29.8075C22.6305 29.7389 22.3558 29.6587 22.0811 29.59C21.8178 29.5099 21.5431 29.4412 21.2912 29.3611C21.2798 29.3611 21.2798 29.3611 21.2683 29.3611C21.0737 29.3039 20.8906 29.2466 20.7074 29.178C20.6502 29.1551 20.5815 29.1322 20.5243 29.1207C20.4327 29.0864 20.3526 29.0635 20.2724 29.0406C20.1236 28.9948 19.9863 28.949 19.8603 28.8918H19.8489C19.6429 28.8231 19.4597 28.7544 19.2994 28.6857C19.1277 28.6171 18.9789 28.5598 18.8645 28.514C18.75 28.4568 18.647 28.4225 18.5897 28.3881C18.521 28.3538 18.4867 28.3423 18.4867 28.3423C18.4867 28.3423 18.5096 28.3767 18.5554 28.4225C18.6012 28.4797 18.6699 28.5598 18.7729 28.6514C18.8645 28.743 18.9904 28.8574 19.1392 28.9719C19.288 29.0864 19.4597 29.2123 19.6429 29.3382C19.6429 29.3382 19.6429 29.3382 19.6543 29.3382C19.5856 29.5672 19.5398 29.819 19.5398 30.0708C19.5398 31.3872 20.6158 32.4632 21.9322 32.4632C22.951 32.4632 23.821 31.8222 24.1644 30.9179C24.2789 30.9293 24.4048 30.9408 24.5193 30.9522C24.7253 30.9637 24.9199 30.9637 25.1031 30.9637C25.1145 30.9637 25.126 30.9751 25.1374 30.9751L27.0719 32.944C27.5642 33.4362 28.3311 33.5164 28.9035 33.1386L31.9255 31.4445C32.1888 31.2728 32.3605 30.9751 32.3605 30.6546V27.1747C33.528 26.2475 34.5812 25.1486 35.268 23.9009C35.1421 24.8052 34.9017 25.6637 34.5468 26.4765ZM23.2372 30.8034C23.1914 30.895 23.1227 30.9866 23.0655 31.0667C22.7908 31.3872 22.3787 31.5933 21.9208 31.5933C21.4629 31.5933 21.0508 31.3872 20.7761 31.0667C20.5472 30.8034 20.4212 30.46 20.4212 30.0937C20.4212 30.0021 20.4327 29.922 20.4441 29.8304C20.6273 29.922 20.8219 30.0136 21.0165 30.1052C21.2798 30.2196 21.5545 30.3341 21.8407 30.4257C22.1268 30.5287 22.4245 30.6088 22.7221 30.689C22.8938 30.7347 23.0655 30.7691 23.2372 30.8034Z" fill="black"/>
<defs>
<filter id="filter0_d_3385_4037" x="3" y="3" width="44.4688" height="44.4688" filterUnits="userSpaceOnUse" color-interpolation-filters="sRGB">
<feFlood flood-opacity="0" result="BackgroundImageFix"/>
<feColorMatrix in="SourceAlpha" type="matrix" values="0 0 0 0 0 0 0 0 0 0 0 0 0 0 0 0 0 0 127 0" result="hardAlpha"/>
<feOffset/>
<feGaussianBlur stdDeviation="1"/>
<feComposite in2="hardAlpha" operator="out"/>
<feColorMatrix type="matrix" values="0 0 0 0 0 0 0 0 0 0 0 0 0 0 0 0 0 0 0.25 0"/>
<feBlend mode="normal" in2="BackgroundImageFix" result="effect1_dropShadow_3385_4037"/>
<feBlend mode="normal" in="SourceGraphic" in2="effect1_dropShadow_3385_4037" result="shape"/>
</filter>
<filter id="filter1_f_3385_4037" x="12" y="8" width="26" height="35" filterUnits="userSpaceOnUse" color-interpolation-filters="sRGB">
<feFlood flood-opacity="0" result="BackgroundImageFix"/>
<feBlend mode="normal" in="SourceGraphic" in2="BackgroundImageFix" result="shape"/>
<feGaussianBlur stdDeviation="2" result="effect1_foregroundBlur_3385_4037"/>
</filter>
</defs>
</svg>
