<svg width="50" height="50" viewBox="0 0 50 50" fill="none" xmlns="http://www.w3.org/2000/svg">
<g clip-path="url(#clip0_3389_3302)">
<g filter="url(#filter0_d_3389_3302)">
<rect x="5" y="5" width="40.4688" height="40.4688" rx="9" fill="white"/>
</g>
<g clip-path="url(#clip1_3389_3302)">
<mask id="mask0_3389_3302" style="mask-type:luminance" maskUnits="userSpaceOnUse" x="5" y="5" width="41" height="41">
<path d="M45.47 5H5V45.47H45.47V5Z" fill="white"/>
</mask>
<g mask="url(#mask0_3389_3302)">
<path fill-rule="evenodd" clip-rule="evenodd" d="M5 5H45.47V45.47H5V5Z" fill="url(#paint0_linear_3389_3302)"/>
<path fill-rule="evenodd" clip-rule="evenodd" d="M5 5H45.47V45.47H5V5Z" fill="url(#paint1_linear_3389_3302)"/>
<g filter="url(#filter1_ii_3389_3302)">
<path d="M31.6415 33.4097C31.5498 33.4097 31.4578 33.4078 31.3657 33.404C30.0655 35.3781 27.8612 36.5791 25.4709 36.5791V34.7788C27.402 34.7788 29.1678 33.7285 30.0922 32.0306L30.3866 31.4898L30.9973 31.5681C31.211 31.5955 31.4277 31.6094 31.6415 31.6094C34.4098 31.6094 36.6633 29.3557 36.6633 26.5875C36.6633 25.103 35.9746 23.6488 34.8232 22.7026L34.4682 22.4108L34.4963 21.9521C34.5021 21.857 34.505 21.7603 34.505 21.6644C34.505 19.0078 32.3423 16.8451 29.6857 16.8451C28.7287 16.8451 27.807 17.1244 27.0118 17.6551L26.3416 18.1026L25.8231 17.4857C24.9025 16.3907 23.5626 15.7661 22.1327 15.7661C19.4761 15.7661 17.3134 17.9289 17.3134 20.5855C17.3134 20.6596 17.3152 20.7347 17.3187 20.809L17.3473 21.4205L16.7892 21.6719C14.9748 22.4891 13.8066 24.295 13.8066 26.2841C13.8066 29.0709 16.0753 31.3397 18.862 31.3397C19.1583 31.3397 19.4552 31.3139 19.7451 31.2628L20.421 31.1438L20.7147 31.7641C21.5828 33.5975 23.4458 34.7788 25.4709 34.7788V36.5791C22.9716 36.5791 20.662 35.244 19.3988 33.1191C19.2203 33.133 19.0411 33.1399 18.862 33.1399C15.081 33.1399 12.0063 30.0652 12.0063 26.2841C12.0063 23.7857 13.3646 21.5014 15.5193 20.2974C15.6706 16.7797 18.5783 13.9658 22.1327 13.9658C23.8365 13.9658 25.4519 14.6144 26.6743 15.769C27.6034 15.2933 28.6306 15.0448 29.6857 15.0448C33.3184 15.0448 36.2758 17.984 36.3052 21.6099C37.6665 22.8919 38.4636 24.7142 38.4636 26.5875C38.4636 30.35 35.4041 33.4097 31.6415 33.4097ZM28.8904 27.5766C28.2791 27.8105 27.6772 27.9289 27.0981 27.9289C26.5173 27.9289 25.9441 27.8098 25.3964 27.5756C25.3742 27.5663 25.3742 27.5663 25.3522 27.557C25.1504 27.4701 25.0639 27.3655 25.0639 27.1361V26.8295C25.0639 26.56 25.2192 26.3866 25.4721 26.3866L25.5289 26.3943L25.544 26.4002C26.045 26.5977 26.5675 26.6979 27.0972 26.6979C27.6292 26.6979 28.186 26.5971 28.7523 26.3978L28.8032 26.3866H28.8175C29.0705 26.3866 29.2258 26.56 29.2258 26.8295V27.1361C29.2258 27.3799 29.1421 27.4684 28.9082 27.569L28.8904 27.5766ZM21.3845 24.6383L23.0394 24.2039L21.3806 23.7685C21.2086 23.7235 21.0845 23.5878 21.0845 23.3502V22.8286C21.0845 22.6005 21.2214 22.5024 21.3779 22.5024C21.4287 22.5024 21.481 22.5134 21.5335 22.5331L24.4869 23.4886C24.7113 23.5633 24.8347 23.7436 24.8347 23.9904V24.4173C24.8347 24.6641 24.7114 24.8443 24.4868 24.9192L21.5271 25.8767C21.4771 25.8914 21.4325 25.8987 21.3891 25.8987C21.2037 25.8987 21.0845 25.7654 21.0845 25.5713V25.0574C21.0845 24.8105 21.2127 24.6744 21.3845 24.6383Z" fill="black"/>
<path d="M31.6415 33.4097C31.5498 33.4097 31.4578 33.4078 31.3657 33.404C30.0655 35.3781 27.8612 36.5791 25.4709 36.5791V34.7788C27.402 34.7788 29.1678 33.7285 30.0922 32.0306L30.3866 31.4898L30.9973 31.5681C31.211 31.5955 31.4277 31.6094 31.6415 31.6094C34.4098 31.6094 36.6633 29.3557 36.6633 26.5875C36.6633 25.103 35.9746 23.6488 34.8232 22.7026L34.4682 22.4108L34.4963 21.9521C34.5021 21.857 34.505 21.7603 34.505 21.6644C34.505 19.0078 32.3423 16.8451 29.6857 16.8451C28.7287 16.8451 27.807 17.1244 27.0118 17.6551L26.3416 18.1026L25.8231 17.4857C24.9025 16.3907 23.5626 15.7661 22.1327 15.7661C19.4761 15.7661 17.3134 17.9289 17.3134 20.5855C17.3134 20.6596 17.3152 20.7347 17.3187 20.809L17.3473 21.4205L16.7892 21.6719C14.9748 22.4891 13.8066 24.295 13.8066 26.2841C13.8066 29.0709 16.0753 31.3397 18.862 31.3397C19.1583 31.3397 19.4552 31.3139 19.7451 31.2628L20.421 31.1438L20.7147 31.7641C21.5828 33.5975 23.4458 34.7788 25.4709 34.7788V36.5791C22.9716 36.5791 20.662 35.244 19.3988 33.1191C19.2203 33.133 19.0411 33.1399 18.862 33.1399C15.081 33.1399 12.0063 30.0652 12.0063 26.2841C12.0063 23.7857 13.3646 21.5014 15.5193 20.2974C15.6706 16.7797 18.5783 13.9658 22.1327 13.9658C23.8365 13.9658 25.4519 14.6144 26.6743 15.769C27.6034 15.2933 28.6306 15.0448 29.6857 15.0448C33.3184 15.0448 36.2758 17.984 36.3052 21.6099C37.6665 22.8919 38.4636 24.7142 38.4636 26.5875C38.4636 30.35 35.4041 33.4097 31.6415 33.4097ZM28.8904 27.5766C28.2791 27.8105 27.6772 27.9289 27.0981 27.9289C26.5173 27.9289 25.9441 27.8098 25.3964 27.5756C25.3742 27.5663 25.3742 27.5663 25.3522 27.557C25.1504 27.4701 25.0639 27.3655 25.0639 27.1361V26.8295C25.0639 26.56 25.2192 26.3866 25.4721 26.3866L25.5289 26.3943L25.544 26.4002C26.045 26.5977 26.5675 26.6979 27.0972 26.6979C27.6292 26.6979 28.186 26.5971 28.7523 26.3978L28.8032 26.3866H28.8175C29.0705 26.3866 29.2258 26.56 29.2258 26.8295V27.1361C29.2258 27.3799 29.1421 27.4684 28.9082 27.569L28.8904 27.5766ZM21.3845 24.6383L23.0394 24.2039L21.3806 23.7685C21.2086 23.7235 21.0845 23.5878 21.0845 23.3502V22.8286C21.0845 22.6005 21.2214 22.5024 21.3779 22.5024C21.4287 22.5024 21.481 22.5134 21.5335 22.5331L24.4869 23.4886C24.7113 23.5633 24.8347 23.7436 24.8347 23.9904V24.4173C24.8347 24.6641 24.7114 24.8443 24.4868 24.9192L21.5271 25.8767C21.4771 25.8914 21.4325 25.8987 21.3891 25.8987C21.2037 25.8987 21.0845 25.7654 21.0845 25.5713V25.0574C21.0845 24.8105 21.2127 24.6744 21.3845 24.6383Z" fill="url(#paint2_linear_3389_3302)"/>
</g>
</g>
</g>
</g>
<defs>
<filter id="filter0_d_3389_3302" x="3" y="3" width="44.4688" height="44.4688" filterUnits="userSpaceOnUse" color-interpolation-filters="sRGB">
<feFlood flood-opacity="0" result="BackgroundImageFix"/>
<feColorMatrix in="SourceAlpha" type="matrix" values="0 0 0 0 0 0 0 0 0 0 0 0 0 0 0 0 0 0 127 0" result="hardAlpha"/>
<feOffset/>
<feGaussianBlur stdDeviation="1"/>
<feComposite in2="hardAlpha" operator="out"/>
<feColorMatrix type="matrix" values="0 0 0 0 0 0 0 0 0 0 0 0 0 0 0 0 0 0 0.25 0"/>
<feBlend mode="normal" in2="BackgroundImageFix" result="effect1_dropShadow_3389_3302"/>
<feBlend mode="normal" in="SourceGraphic" in2="effect1_dropShadow_3389_3302" result="shape"/>
</filter>
<filter id="filter1_ii_3389_3302" x="12.0063" y="10.9658" width="26.4573" height="25.6133" filterUnits="userSpaceOnUse" color-interpolation-filters="sRGB">
<feFlood flood-opacity="0" result="BackgroundImageFix"/>
<feBlend mode="normal" in="SourceGraphic" in2="BackgroundImageFix" result="shape"/>
<feColorMatrix in="SourceAlpha" type="matrix" values="0 0 0 0 0 0 0 0 0 0 0 0 0 0 0 0 0 0 127 0" result="hardAlpha"/>
<feOffset dy="-3"/>
<feGaussianBlur stdDeviation="1.5"/>
<feComposite in2="hardAlpha" operator="arithmetic" k2="-1" k3="1"/>
<feColorMatrix type="matrix" values="0 0 0 0 0 0 0 0 0 0 0 0 0 0 0 0 0 0 0.05 0"/>
<feBlend mode="normal" in2="shape" result="effect1_innerShadow_3389_3302"/>
<feColorMatrix in="SourceAlpha" type="matrix" values="0 0 0 0 0 0 0 0 0 0 0 0 0 0 0 0 0 0 127 0" result="hardAlpha"/>
<feOffset/>
<feGaussianBlur stdDeviation="2"/>
<feComposite in2="hardAlpha" operator="arithmetic" k2="-1" k3="1"/>
<feColorMatrix type="matrix" values="0 0 0 0 1 0 0 0 0 1 0 0 0 0 1 0 0 0 0.2 0"/>
<feBlend mode="normal" in2="effect1_innerShadow_3389_3302" result="effect2_innerShadow_3389_3302"/>
</filter>
<linearGradient id="paint0_linear_3389_3302" x1="1259.73" y1="172.586" x2="2897.96" y2="3841.43" gradientUnits="userSpaceOnUse">
<stop stop-color="#2E3973"/>
<stop offset="1" stop-color="#141729"/>
</linearGradient>
<linearGradient id="paint1_linear_3389_3302" x1="25.235" y1="5" x2="25.235" y2="45.47" gradientUnits="userSpaceOnUse">
<stop stop-color="#1C265B"/>
<stop offset="1" stop-color="#060816"/>
</linearGradient>
<linearGradient id="paint2_linear_3389_3302" x1="25.235" y1="13.9658" x2="25.235" y2="36.5791" gradientUnits="userSpaceOnUse">
<stop stop-color="#FDFDFF"/>
<stop offset="1" stop-color="#C0CDD8"/>
</linearGradient>
<clipPath id="clip0_3389_3302">
<rect width="40.4688" height="40.4688" fill="white" transform="translate(5 5)"/>
</clipPath>
<clipPath id="clip1_3389_3302">
<rect x="5" y="5" width="40.47" height="40.47" rx="9" fill="white"/>
</clipPath>
</defs>
</svg>
