<svg width="50" height="50" viewBox="0 0 50 50" fill="none" xmlns="http://www.w3.org/2000/svg">
<rect x="5" y="5" width="40.4688" height="40.4688" rx="9" fill="url(#paint0_linear_3352_1403)"/>
<g clip-path="url(#clip0_3352_1403)">
<path d="M29.0092 23.6C33.891 16.4333 37.8648 15.9271 37.8283 16.0699C37.8885 16.056 33.4316 12.8325 29.8767 16.3927C28.514 17.735 27.5673 18.8894 25.9891 21.2118C26.8043 22.4316 27.58 23.6371 28.2496 24.6804C28.7402 23.9301 28.4847 24.3416 29.0092 23.6Z" fill="white"/>
<path d="M38.5579 17.4284C38.556 17.4018 37.1759 18.7503 35.315 21.5323C33.475 24.1354 31.1545 28.1725 29.7527 29.3969C29.7525 29.3973 28.8312 27.9624 27.483 25.8623C26.8111 24.8188 26.0335 23.6162 25.2181 22.4036C23.6372 20.0443 21.919 17.7068 20.559 16.3927C17.0043 12.8325 12.5474 16.056 12.6075 16.0699C12.5711 15.9271 16.5449 16.4333 21.4267 23.6C21.9512 24.3417 22.4601 25.096 22.9529 25.8623C22.1968 27.0408 21.4402 28.219 20.6832 29.3969C19.2813 28.1722 16.9609 24.1354 15.1208 21.5323C13.2602 18.7501 11.8797 17.4018 11.8781 17.4284C11.856 17.5724 11.4056 18.747 12.1254 21.1701C12.8928 23.788 14.83 27.654 20.6834 37.6781C20.6819 37.6933 22.4288 34.3535 25.2181 29.5556C28.0073 34.3535 29.7543 37.6935 29.7527 37.6781C35.606 27.654 37.5433 23.7878 38.3109 21.1701C39.0302 18.747 38.5801 17.5724 38.5579 17.4284Z" fill="white"/>
</g>
<defs>
<linearGradient id="paint0_linear_3352_1403" x1="5" y1="5" x2="5" y2="45.4688" gradientUnits="userSpaceOnUse">
<stop stop-color="#2D2D2D"/>
<stop offset="1"/>
</linearGradient>
<clipPath id="clip0_3352_1403">
<rect width="27" height="23" fill="white" transform="translate(11.7188 14.7188)"/>
</clipPath>
</defs>
</svg>
