<svg
    width="16"
    height="16"
    viewBox="0 0 16 16"
    xmlns="http://www.w3.org/2000/svg"
>
    <g fill="#f7f7f7" transform="scale(0.65) translate(4 4)" shape-rendering="auto">
        <path d="m14.477 1a0.5 0.5 0 0 0-0.33008 0.14648l-5 5a0.5 0.5 0 0 0 0 0.70703 0.5 0.5 0 0 0 0.70703 0l5-5a0.5 0.5 0 0 0 0-0.70703 0.5 0.5 0 0 0-0.37695-0.14648z"/>
        <path d="m10.5 1a0.5 0.5 0 0 0-0.5 0.5 0.5 0.5 0 0 0 0.5 0.5h3.5v3.5a0.5 0.5 0 0 0 0.5 0.5 0.5 0.5 0 0 0 0.5-0.5v-4a0.50005 0.50005 0 0 0-0.5-0.5h-4z"/>
        <path d="m1.5 10a0.5 0.5 0 0 0-0.5 0.5v4a0.50005 0.50005 0 0 0 0.5 0.5h4a0.5 0.5 0 0 0 0.5-0.5 0.5 0.5 0 0 0-0.5-0.5h-3.5v-3.5a0.5 0.5 0 0 0-0.5-0.5z"/>
        <path d="m6.4766 9a0.5 0.5 0 0 0-0.33008 0.14648l-5 5a0.5 0.5 0 0 0 0 0.70703 0.5 0.5 0 0 0 0.70703 0l5-5a0.5 0.5 0 0 0 0-0.70703 0.5 0.5 0 0 0-0.37695-0.14648z"/>
    </g>
</svg>
